<svg xmlns="http://www.w3.org/2000/svg" viewBox="0 0 32 32" fill="none">
  <defs>
    <linearGradient id="g" x1="0" y1="0" x2="1" y2="1">
      <stop offset="0%" stop-color="#6366F1"/>
      <stop offset="100%" stop-color="#22D3EE"/>
    </linearGradient>
  </defs>
  <!-- Soft rounded bg -->
  <rect width="32" height="32" rx="8" fill="#0A0A10"/>
  <!-- 4-point sparkle star -->
  <path d="M16 4C16 4 18.5 12.5 16 16C12.5 18.5 4 16 4 16C4 16 12.5 13.5 16 16C18.5 19.5 16 28 16 28C16 28 13.5 19.5 16 16C19.5 13.5 28 16 28 16C28 16 19.5 18.5 16 16C13.5 12.5 16 4 16 4Z" fill="url(#g)"/>
  <!-- Center glow dot -->
  <circle cx="16" cy="16" r="2.5" fill="white" opacity="0.9"/>
</svg>
